# AST/ASF file generated using VICON BodyLanguage
# -----------------------------------------------
:version 1.10
:name VICON
:units
  mass 1.0
  length 0.45
  angle deg
:documentation
   .ast/.asf automatically generated from VICON data using
   VICON BodyBuilder and BodyLanguage model FoxedUp or BRILLIANT.MOD
:root
   order TX TY TZ RX RY RZ
   axis XYZ
   position 0 0 0  
   orientation 0 0 0 
:bonedata
  begin
     id 1 
     name lhipjoint
     direction 0.645893 -0.654526 0.392961 
     length 2.38111 
     axis 0 0 0  XYZ
  end
  begin
     id 2 
     name lfemur
     direction 0.34202 -0.939693 0  
     length 6.6822  
     axis 0 0 20  XYZ
    dof rx ry rz
    limits (-160.0 20.0)
           (-70.0 70.0)
           (-60.0 70.0)
  end
  begin
     id 3 
     name ltibia
     direction 0.34202 -0.939693 0   
     length 6.93904   
     axis 0 0 20   XYZ
    dof rx
    limits (-10.0 170.0)
  end
  begin
     id 4 
     name lfoot
     direction 0.0694967 -0.190941 0.979138   
     length 2.13616   
     axis -90 7.62852e-016 20   XYZ
    dof rx rz
    limits (-45.0 90.0)
           (-70.0 20.0)
  end
  begin
     id 5 
     name ltoes
     direction 1.535e-011 -4.2202e-011 1   
     length 1.07536   
     axis -90 7.62852e-016 20   XYZ
    dof rx
    limits (-90.0 20.0)
  end
  begin
     id 6 
     name rhipjoint
     direction -0.700219 -0.612087 0.367481   
     length 2.54621  
     axis 0 0 0  XYZ 
  end
  begin
     id 7 
     name rfemur
     direction -0.34202 -0.939693 0   
     length 6.55353   
     axis 0 0 -20   XYZ
    dof rx ry rz
    limits (-160.0 20.0)
           (-70.0 70.0)
           (-70.0 60.0)
  end
  begin
     id 8 
     name rtibia
     direction -0.34202 -0.939693 0   
     length 6.8736   
     axis 0 0 -20   XYZ
    dof rx
    limits (-10.0 170.0)
 end
 begin
     id 9 
     name rfoot
     direction -0.0679995 -0.186827 0.980037   
     length 2.1218  
     axis -90 -7.62852e-016 -20   XYZ
    dof rx rz
    limits (-45.0 90.0)
           (-20.0 70.0)
  end
  begin
     id 10 
     name rtoes
     direction -1.53589e-011 -4.21772e-011 1   
     length 1.06864   
     axis -90 -7.62852e-016 -20   XYZ
    dof rx
    limits (-90.0 20.0)
  end
  begin
     id 11 
     name lowerback
     direction -0.0416607 0.996347 -0.0745409   
     length 2.12205   
     axis 0 0 0   XYZ
    dof rx ry rz
    limits (-20.0 45.0)
           (-30.0 30.0)
           (-30.0 30.0)
  end
  begin
     id 12 
     name upperback
     direction -0.000153993 0.999276 -0.0380568   
     length 2.12759   
     axis 0 0 0   XYZ
    dof rx ry rz
    limits (-20.0 45.0)
           (-30.0 30.0)
           (-30.0 30.0)
  end
  begin
     id 13 
     name thorax
     direction 0.0187671 0.999821 -0.00241421   
     length 2.13704   
     axis 0 0 0   XYZ
    dof rx ry rz
    limits (-20.0 45.0)
           (-30.0 30.0)
           (-30.0 30.0)
  end
  begin
     id 14 
     name lowerneck
     direction 0.0268157 0.964865 0.261374   
     length 1.65253   
     axis 0 0 0   XYZ
    dof rx ry rz
    limits (-20.0 45.0)
           (-30.0 30.0)
           (-30.0 30.0)
  end
  begin
     id 15 
     name upperneck
     direction 0.00263774 0.939908 -0.341418   
     length 1.72375   
     axis 0 0 0   XYZ
    dof rx ry rz
    limits (-20.0 45.0)
           (-30.0 30.0)
           (-30.0 30.0)
  end
  begin
     id 16
     name head
     direction -0.00526001 0.989001 -0.147818  
     length 1.74878  
     axis 0 0 0   XYZ
    dof rx ry rz
    limits (-20.0 45.0)
           (-30.0 30.0)
           (-30.0 30.0)
  end
  begin
     id 17 
     name lclavicle
     direction 0.881214 0.461162 -0.103884  
     length 3.25108  
     axis 0 0 0   XYZ
    dof ry rz
    limits (-20.0 10.0)
           (0.0 20.0)
  end
  begin
     id 18 
     name lhumerus
     direction 1 -4.4899e-011 3.38092e-027   
     length 4.87408   
     axis 180 -30 -90   XYZ
    dof rx ry rz
    limits (-60.0 90.0)
           (-90.0 90.0)
           (-90.0 90.0)
  end
  begin
     id 19
     name lradius
     direction 1 -4.48931e-011 9.96288e-027   
     length 2.76729   
     axis 180 -30 -90   XYZ
    dof rx
    limits (-10.0 170.0)
  end
  begin
     id 20
     name lwrist
     direction 1 -4.4896e-011 1.50617e-026   
     length 1.38364   
     axis -9.31234e-015 90 90   XYZ
    dof ry
    limits (-180.0 0.0)
 end
  begin
     id 21 
     name lhand
     direction 1 -4.49038e-011 3.01286e-026   
     length 0.98922   
     axis -1.92217e-014 90 90   XYZ
    dof rx rz
    limits (-90.0 90.0)
           (-45.0 45.0)
  end
  begin
     id 22 
     name lfingers
     direction 1 -4.49051e-011 6.02588e-026   
     length 0.797535   
     axis -3.84436e-014 90 90   XYZ
    dof rx
    limits (0.0 90.0)
  end
  begin
     id 23
     name lthumb
     direction 0.707107 -6.34901e-011 0.707107   
     length 1.14511   
     axis -90 45 2.19363e-014   XYZ
    dof rx rz
    limits (-45.0 45.0)
           (-45.0 45.0)
  end
  begin
     id 24 
     name rclavicle
     direction -0.893894 0.441652 -0.0767889   
     length 3.29361  
     axis 0 0 0   XYZ 
    dof ry rz
    limits (-10.0 20.0)
           (-20.0 0.0)
  end
  begin
     id 25 
     name rhumerus
     direction -1 -4.48945e-011 8.0491e-028  
     length 4.71404   
     axis 180 30 90   XYZ
    dof rx ry rz
    limits (-90.0 60.0)
           (-90.0 90.0)
           (-90.0 90.0)
  end
  begin
     id 26 
     name rradius
     direction -1 -4.48986e-011 9.27795e-027   
     length 2.83468   
     axis 180 30 90   XYZ
    dof rx
    limits (-10.0 170.0)
  end
  begin
     id 27 
     name rwrist
     direction -1 -4.49029e-011 1.5064e-026   
     length 1.41734   
     axis -9.31234e-015 -90 -90   XYZ
    dof ry
    limits (-180.0 0.0)
  end
  begin
     id 28
     name rhand
     direction -1 -4.48857e-011 3.01165e-026   
     length 0.868195   
     axis -1.92217e-014 -90 -90   XYZ
    dof rx rz
    limits (-90.0 90.0)
           (-45.0 45.0)
  end
  begin
     id 29
     name rfingers
     direction -1 -4.49048e-011 6.02585e-026   
     length 0.699961   
     axis -3.84436e-014 -90 -90   XYZ
    dof rx
    limits (0.0 90.0)
  end
  begin
     id 30
     name rthumb
     direction -0.707107 -6.34854e-011 0.707107   
     length 1.00501   
     axis -90 -45 -2.19363e-014   XYZ
    dof rx rz
    limits (-45.0 45.0)
           (-45.0 45.0)
  end
:hierarchy
  begin
    root lhipjoint rhipjoint lowerback
    lhipjoint lfemur
    lfemur ltibia
    ltibia lfoot
    lfoot ltoes
    rhipjoint rfemur
    rfemur rtibia
    rtibia rfoot
    rfoot rtoes
    lowerback upperback
    upperback thorax
    thorax lowerneck lclavicle rclavicle
    lowerneck upperneck
    upperneck head
    lclavicle lhumerus
    lhumerus lradius
    lradius lwrist
    lwrist lhand lthumb
    lhand lfingers
    rclavicle rhumerus
    rhumerus rradius
    rradius rwrist
    rwrist rhand rthumb
    rhand rfingers
  end

#!OML:ASF H:\ManfredObstacles\Project 1\Capture day 2\Session 1\male.ASF
:FULLY-SPECIFIED
:DEGREES
177
root 1.72641 16.1199 9.43409 -155.956 4.63296 178.246
lowerback 3.38376 -0.44845 -5.06978
upperback 1.39845 -0.664917 -1.40136
thorax -0.413884 -0.301437 1.42503
lowerneck -31.6113 0.0431808 4.6254
upperneck 39.9874 0.544232 -1.18008
head 21.6835 1.49719 -0.998863
rclavicle -2.98177e-015 -7.95139e-015
rhumerus -12.7125 22.4771 -83.9107
rradius 95.4089
rwrist 23.7292
rhand -8.44961 -5.86343
rfingers 7.12502
rthumb 17.4762 -35.0979
lclavicle -2.98177e-015 -7.95139e-015
lhumerus -9.29553 -19.4579 83.824
lradius 82.4417
lwrist -25.4615
lhand -25.6053 31.9043
lfingers 7.12502
lthumb 0.92692 61.882
rfemur -21.9193 3.11833 19.9145
rtibia 45.2738
rfoot 9.88662 -7.24823
rtoes -30.2121
lfemur -19.8206 -1.21633 -24.7422
ltibia 45.6138
lfoot 18.46 3.11623
ltoes -2.38112
178
root 1.73507 16.4165 9.0615 -156.562 4.26531 177.799
lowerback 2.21118 -0.59331 -5.22796
upperback 1.06269 -0.809626 -1.47629
thorax -0.0928007 -0.381275 1.4303
lowerneck -30.9869 -0.262124 4.70743
upperneck 41.2216 0.729624 -1.35834
head 23.0391 1.75542 -1.05726
rclavicle 5.76476e-015 1.86858e-014
rhumerus -13.1978 22.446 -83.2111
rradius 96.8514
rwrist 20.5165
rhand -7.75141 -6.8116
rfingers 7.12502
rthumb 18.148 -35.985
lclavicle 5.76476e-015 1.86858e-014
lhumerus -9.97109 -20.9639 84.4668
lradius 83.6761
lwrist -24.495
lhand -24.537 32.426
lfingers 7.12502
lthumb 1.95873 62.3967
rfemur -19.6271 3.32246 19.3348
rtibia 42.8018
rfoot 16.0173 -5.96335
rtoes -18.8051
lfemur -18.0996 -2.0776 -24.9256
ltibia 44.0189
lfoot 21.9726 0.770738
ltoes 2.42768
179
root 1.7431 16.718 8.70017 -156.989 3.89782 177.385
lowerback 1.1106 -0.725814 -5.30248
upperback 0.698818 -0.931516 -1.59902
thorax 0.156731 -0.444031 1.33653
lowerneck -30.2569 -0.568841 4.82111
upperneck 42.5008 0.913829 -1.5264
head 23.9223 2.00098 -1.06735
rclavicle 8.74653e-015 2.38542e-015
rhumerus -13.7834 22.2779 -82.5393
rradius 98.4038
rwrist 17.5218
rhand -7.07965 -7.79849
rfingers 7.12502
rthumb 18.7942 -36.9106
lclavicle 8.74653e-015 2.38542e-015
lhumerus -10.735 -22.6293 85.0664
lradius 84.7405
lwrist -23.5906
lhand -22.2256 32.4792
lfingers 7.12502
lthumb 4.19097 62.4178
rfemur -17.9601 3.811 18.8382
rtibia 41.0392
rfoot 22.3211 -5.73562
rtoes -1.59209
lfemur -17.0312 -2.85602 -25.1607
ltibia 43.3088
lfoot 24.7451 -0.649985
ltoes 4.10491
180
root 1.75032 17.0215 8.35263 -157.234 3.5594 177.053
lowerback 0.0605273 -0.822369 -5.28401
upperback 0.34001 -0.999861 -1.73984
thorax 0.378282 -0.476341 1.17012
lowerneck -29.5751 -0.867432 4.88312
upperneck 43.532 1.04427 -1.59675
head 24.6559 2.2153 -1.02916
rclavicle -1.82882e-014 -4.25399e-014
rhumerus -14.4804 21.9842 -81.8805
rradius 100.045
rwrist 14.76
rhand -6.45889 -8.81786
rfingers 7.12502
rthumb 19.3912 -37.871
lclavicle -1.82882e-014 -4.25399e-014
lhumerus -11.5037 -24.1017 85.6016
lradius 85.7642
lwrist -22.7777
lhand -18.9788 31.6981
lfingers 7.12502
lthumb 7.32557 61.5513
rfemur -16.9238 4.42194 18.4782
rtibia 40.061
rfoot 28.3509 -6.2351
rtoes 15.2804
lfemur -16.6237 -3.41028 -25.3975
ltibia 43.5261
lfoot 26.5759 -1.35203
ltoes 3.15947
181
root 1.757 17.3227 8.0212 -157.327 3.24139 176.827
lowerback -0.915176 -0.881643 -5.18493
upperback 0.0111452 -1.01875 -1.86247
thorax 0.584868 -0.482182 0.977415
lowerneck -29.0154 -1.12389 4.90166
upperneck 44.2909 1.12694 -1.60562
head 25.2068 2.38206 -0.966992
rclavicle 1.07344e-014 3.4191e-014
rhumerus -15.3238 21.6922 -81.2513
rradius 101.682
rwrist 12.2388
rhand -5.89765 -9.84728
rfingers 7.12502
rthumb 19.9307 -38.8452
lclavicle 1.07344e-014 3.4191e-014
lhumerus -12.2429 -25.2157 86.0751
lradius 86.7073
lwrist -22.2992
lhand -15.772 29.3826
lfingers 7.12502
lthumb 10.4201 59.1043
rfemur -16.4593 4.94255 18.2824
rtibia 39.8589
rfoot 33.4079 -6.85396
rtoes 24.1311
lfemur -16.8327 -3.6903 -25.59
ltibia 44.6223
lfoot 27.5803 -1.52401
ltoes 0.682093
182
root 1.76311 17.6164 7.70781 -157.351 2.94855 176.739
lowerback -1.74838 -0.89482 -5.00297
upperback -0.258457 -0.986129 -1.94161
thorax 0.768906 -0.462453 0.785599
lowerneck -28.524 -1.33213 4.88168
upperneck 44.7907 1.16663 -1.57729
head 25.5297 2.49635 -0.897371
rclavicle 1.19271e-015 -1.59028e-014
rhumerus -16.3553 21.4809 -80.6877
rradius 103.23
rwrist 9.96359
rhand -5.4167 -10.855
rfingers 7.12502
rthumb 20.393 -39.8042
lclavicle 1.19271e-015 -1.59028e-014
lhumerus -12.9666 -25.9519 86.5012
lradius 87.5115
lwrist -22.3144
lhand -13.3465 25.9535
lfingers 7.12502
lthumb 12.7592 55.5437
rfemur -16.4267 5.24651 18.2766
rtibia 40.34
rfoot 37.0971 -7.04827
rtoes 25.4055
lfemur -17.5325 -3.69656 -25.6968
ltibia 46.4672
lfoot 28.0679 -1.3408
ltoes -1.20954
